Coordinates
version=1
nRows=7
nColumns=63
inDegrees=yes

Units are S.I. units (second, meters, Newtons, ...)
If the header above contains a line with 'inDegrees', this indicates whether rotational values are in degrees (yes) or radians (no).

endheader
time	pelvis_tilt	pelvis_list	pelvis_rotation	pelvis_tx	pelvis_ty	pelvis_tz	hip_flexion_r	hip_adduction_r	hip_rotation_r	knee_angle_r	knee_angle_r_beta	ankle_angle_r	subtalar_angle_r	mtp_angle_r	hip_flexion_l	hip_adduction_l	hip_rotation_l	knee_angle_l	knee_angle_l_beta	ankle_angle_l	subtalar_angle_l	mtp_angle_l	L5_S1_Flex_Ext	L5_S1_Lat_Bending	L5_S1_axial_rotation	L4_L5_Flex_Ext	L4_L5_Lat_Bending	L4_L5_axial_rotation	L3_L4_Flex_Ext	L3_L4_Lat_Bending	L3_L4_axial_rotation	L2_L3_Flex_Ext	L2_L3_Lat_Bending	L2_L3_axial_rotation	L1_L2_Flex_Ext	L1_L2_Lat_Bending	L1_L2_axial_rotation	L1_T12_Flex_Ext	L1_T12_Lat_Bending	L1_T12_axial_rotation	Abs_r3	Abs_r2	Abs_r1	Abs_t1	Abs_t2	neck_flexion	neck_bending	neck_rotation	arm_flex_r	arm_add_r	arm_rot_r	elbow_flex_r	pro_sup_r	wrist_flex_r	wrist_dev_r	arm_flex_l	arm_add_l	arm_rot_l	elbow_flex_l	pro_sup_l	wrist_flex_l	wrist_dev_l
      0.00800000	    -50.61214558	     -7.54268073	     -0.83985751	     -0.35849331	      1.12310346	      0.04176349	    112.60140059	     -7.11779634	     -7.10351515	     92.43668662	      1.61332453	     20.72247861	      1.75177826	      0.00000000	     88.20104039	     -8.66218023	      5.98004827	     75.19718356	      1.31243844	     14.49135523	     10.99623524	      0.00000000	     -0.07570066	      0.96711686	      0.33752784	     -0.14058370	      1.28626542	      0.35862333	     -0.12436862	      2.35144793	      0.35862333	     -0.08651829	      2.35144793	      0.29533686	     -0.07029563	      1.97214470	      0.27424137	     -0.04325536	      1.49806402	      0.25314588	     -0.54072226	     10.94021934	      1.87722858	      0.00000000	      0.00000000	     -0.00000000	      0.00000000	      0.00000000	     74.54395880	    -15.49710476	     30.95835312	     32.93303138	     29.71440953	      0.00000000	      5.83852877	     72.97220277	     -8.01144345	     20.09458643	     28.80271090	     53.06627651	      0.00000000	      5.83852877
      0.01700000	    -50.48861536	     -7.77167194	      1.16123708	     -0.35970626	      1.12353210	      0.04075807	    110.01278778	     -8.72943020	     -7.10829890	     86.37057929	      1.50745099	     20.51124845	      4.12452210	      0.00000000	     89.87144648	     -7.32616125	      5.22027236	     80.61864001	      1.40706071	     14.03613860	      9.18040937	      0.00000000	     -0.07440510	      0.95140544	     -0.04408649	     -0.13817771	      1.26536924	     -0.04684190	     -0.12224014	      2.31324720	     -0.04684190	     -0.08503759	      2.31324720	     -0.03857568	     -0.06909258	      1.94010598	     -0.03582028	     -0.04251507	      1.47372703	     -0.03306487	     -0.53146819	     10.76248867	     -0.24519585	      0.00000000	      0.00000000	     -0.00000000	      0.00000000	      0.00000000	     74.16275417	    -15.46434227	     29.60784402	     32.75783942	     29.44815723	      0.00000000	      5.79497860	     73.26008396	     -7.99078793	     20.05634009	     28.70058183	     53.17694109	      0.00000000	      5.79497860
      0.02500000	    -50.46825796	     -7.63666612	      1.65104943	     -0.36018797	      1.12347036	      0.04050615	    109.16780793	     -9.04910249	     -7.00804830	     84.52730830	      1.47527984	     19.97069083	      4.33012046	      0.00000000	     90.51911963	     -6.87690170	      5.12209979	     82.38907585	      1.43796064	     14.29872097	      9.08381782	      0.00000000	     -0.07666190	      0.92183790	     -0.14097036	     -0.14236882	      1.22604441	     -0.14978101	     -0.12594784	      2.24135668	     -0.14978101	     -0.08761689	      2.24135668	     -0.12334906	     -0.07118824	      1.87981185	     -0.11453842	     -0.04380461	      1.42792691	     -0.10572777	     -0.54758829	     10.42801472	     -0.78403484	      0.00000000	      0.00000000	     -0.00000000	      0.00000000	      0.00000000	     74.20033734	    -15.39589489	     29.54534906	     32.62985556	     29.43375317	      0.00000000	      5.79136440	     73.39652362	     -8.04622595	     20.04998312	     28.70324954	     53.18726928	      0.00000000	      5.79136440
      0.03300000	    -50.49027214	     -8.02374025	      1.75190773	     -0.36063960	      1.12342893	      0.04024817	    107.93375632	     -9.16996792	     -7.60726036	     82.18323172	      1.43436798	     19.54109355	      5.08692029	      0.00000000	     91.57645259	     -6.77743468	      5.58394277	     84.63609000	      1.47717844	     14.11966389	      8.38645344	      0.00000000	     -0.07206018	      0.96896987	     -0.16882099	     -0.13382296	      1.28872993	     -0.17937230	     -0.11838767	      2.35595334	     -0.17937230	     -0.08235758	      2.35595334	     -0.14771837	     -0.06691508	      1.97592336	     -0.13716706	     -0.04117519	      1.50093433	     -0.12661574	     -0.51471864	     10.96118095	     -0.93893171	      0.00000000	      0.00000000	     -0.00000000	      0.00000000	      0.00000000	     74.53926158	    -15.16983045	     29.48285287	     31.91383195	     29.39619843	      0.00000000	      5.77243341	     73.40236552	     -8.09207017	     20.20454224	     28.68470020	     53.27145425	      0.00000000	      5.77243341
      0.04200000	    -50.50606485	     -8.16103749	      1.97195817	     -0.36114035	      1.12335587	      0.04003432	    106.61984644	     -9.27726326	     -7.94192520	     79.63109731	      1.38982484	     18.85420470	      5.64230508	      0.00000000	     92.69259189	     -6.52504554	      5.88766003	     87.06052888	      1.51949288	     14.21886653	      7.93564477	      0.00000000	     -0.07184847	      0.97795959	     -0.21622096	     -0.13342980	      1.30068626	     -0.22973477	     -0.11803985	      2.37781095	     -0.22973477	     -0.08211562	      2.37781095	     -0.18919334	     -0.06671849	      1.99425520	     -0.17567953	     -0.04105422	      1.51485941	     -0.16216572	     -0.51320644	     11.06287451	     -1.20255610	      0.00000000	      0.00000000	     -0.00000000	      0.00000000	      0.00000000	     74.82763319	    -14.99945152	     29.57674372	     31.36419168	     29.39365050	      0.00000000	      5.75998380	     73.50107200	     -8.13047206	     20.33508027	     28.70286326	     53.33365910	      0.00000000	      5.75998380
      0.05000000	    -50.50418341	     -8.30617762	      2.12869008	     -0.36145796	      1.12319711	      0.03981047	    105.11548268	     -9.33088722	     -8.42667293	     76.87188170	      1.34166744	     18.07200053	      6.18145145	      0.00000000	     93.92905459	     -6.27181388	      6.30482551	     89.69901056	      1.56554307	     14.41878248	      7.46776123	      0.00000000	     -0.07157058	      0.98856931	     -0.24947420	     -0.13291372	      1.31479719	     -0.26506634	     -0.11758330	      2.40360743	     -0.26506634	     -0.08179801	      2.40360743	     -0.21828992	     -0.06646044	      2.01589055	     -0.20269779	     -0.04089543	      1.53129387	     -0.18710565	     -0.51122147	     11.18289380	     -1.38750065	      0.00000000	      0.00000000	     -0.00000000	      0.00000000	      0.00000000	     75.11279745	    -14.86685263	     29.82069683	     30.83715686	     29.41694421	      0.00000000	      5.74649040	     73.55948836	     -8.17960887	     20.53174004	     28.74002329	     53.41203525	      0.00000000	      5.74649040
      0.05800000	    -50.50753320	     -8.41708644	      2.21696354	     -0.36166330	      1.12302429	      0.03963639	    103.49177803	     -9.26617067	     -8.92341477	     73.93807073	      1.29046278	     17.14489253	      6.63620122	      0.00000000	     95.27887492	     -6.03045815	      6.77229839	     92.44209692	      1.61341896	     14.71890429	      7.10540386	      0.00000000	     -0.07068937	      0.99474895	     -0.27097082	     -0.13127723	      1.32301611	     -0.28790650	     -0.11613557	      2.41863260	     -0.28790650	     -0.08079088	      2.41863260	     -0.23709947	     -0.06564215	      2.02849206	     -0.22016379	     -0.04039191	      1.54086613	     -0.20322812	     -0.50492712	     11.25279910	     -1.50705841	      0.00000000	      0.00000000	     -0.00000000	      0.00000000	      0.00000000	     75.39701266	    -14.71548876	     30.12422105	     30.30046084	     29.45244976	      0.00000000	      5.73371431	     73.60769548	     -8.23766607	     20.76978780	     28.76422847	     53.49707845	      0.00000000	      5.73371431
